<svg version="1.2" xmlns="http://www.w3.org/2000/svg" viewBox="0 0 200 200" width="200" height="200"><style></style><path  d="m51.4 12.6h23.6v125.7h-23.6z"/><path  d="m63.2 126.6h125.8v23.5h-125.8z"/><path  d="m63.2 23.6c-6.5 0-11.8-5.3-11.8-11.8 0-6.5 5.3-11.8 11.8-11.8 6.5 0 11.8 5.3 11.8 11.8 0 6.5-5.3 11.8-11.8 11.8z"/><path  d="m63.2 23.6c-6.5 0-11.8-5.3-11.8-11.8 0-6.5 5.3-11.8 11.8-11.8 6.5 0 11.8 5.3 11.8 11.8 0 6.5-5.3 11.8-11.8 11.8z"/><path  d="m63.2 23.6c-6.5 0-11.8-5.3-11.8-11.8 0-6.5 5.3-11.8 11.8-11.8 6.5 0 11.8 5.3 11.8 11.8 0 6.5-5.3 11.8-11.8 11.8z"/><path  d="m63.2 150.1c-6.5 0-11.8-5.2-11.8-11.8 0-6.5 5.3-11.7 11.8-11.7 6.5 0 11.8 5.2 11.8 11.7 0 6.6-5.3 11.8-11.8 11.8z"/><path  d="m63.2 150.1c-6.5 0-11.8-5.2-11.8-11.8 0-6.5 5.3-11.7 11.8-11.7 6.5 0 11.8 5.2 11.8 11.7 0 6.6-5.3 11.8-11.8 11.8z"/><path  d="m63.2 150.1c-6.5 0-11.8-5.2-11.8-11.8 0-6.5 5.3-11.7 11.8-11.7 6.5 0 11.8 5.2 11.8 11.7 0 6.6-5.3 11.8-11.8 11.8z"/><path  d="m188.2 150.1c-6.5 0-11.8-5.2-11.8-11.8 0-6.5 5.3-11.7 11.8-11.7 6.5 0 11.8 5.2 11.8 11.7 0 6.6-5.3 11.8-11.8 11.8z"/><path  d="m188.2 150.1c-6.5 0-11.8-5.2-11.8-11.8 0-6.5 5.3-11.7 11.8-11.7 6.5 0 11.8 5.2 11.8 11.7 0 6.6-5.3 11.8-11.8 11.8z"/><path  d="m188.2 150.1c-6.5 0-11.8-5.2-11.8-11.8 0-6.5 5.3-11.7 11.8-11.7 6.5 0 11.8 5.2 11.8 11.7 0 6.6-5.3 11.8-11.8 11.8z"/></svg>